<svg width="22" height="20" viewBox="0 0 22 20" fill="none" xmlns="http://www.w3.org/2000/svg">
<path d="M22 14.335C22 17.404 19.536 19.89 16.467 19.901H16.456H5.555C2.497 19.901 0 17.426 0 14.357V14.346C0 14.346 0.0066 9.47738 0.0154 7.02878C0.0165 6.56898 0.5445 6.31158 0.9042 6.59758C3.5178 8.67108 8.1917 12.4518 8.25 12.5013C9.031 13.1272 10.021 13.4803 11.033 13.4803C12.045 13.4803 13.035 13.1272 13.816 12.4892C13.8743 12.4507 18.4437 8.78328 21.0969 6.67568C21.4577 6.38858 21.9879 6.64598 21.989 7.10468C22 9.53458 22 14.335 22 14.335Z" fill="white"/>
<path d="M21.423 3.04003C20.4704 1.24483 18.596 0.0986328 16.5324 0.0986328H5.55438C3.49078 0.0986328 1.61638 1.24483 0.663784 3.04003C0.450384 3.44153 0.551584 3.94203 0.906884 4.22583L9.07438 10.7587C9.64638 11.2207 10.3394 11.4506 11.0324 11.4506C11.0368 11.4506 11.0401 11.4506 11.0434 11.4506C11.0467 11.4506 11.0511 11.4506 11.0544 11.4506C11.7474 11.4506 12.4404 11.2207 13.0124 10.7587L21.1799 4.22583C21.5352 3.94203 21.6364 3.44153 21.423 3.04003Z" fill="white"/>
</svg>
