<svg width="27" height="27" viewBox="0 0 27 27" fill="none" xmlns="http://www.w3.org/2000/svg">
<path d="M6.70116 1.47207C10.8469 -0.522854 15.9426 -0.487986 20.0494 1.56341C24.1159 3.65658 26.5873 7.39227 26.5645 11.4108C26.4697 15.403 23.8195 19.1557 20.5069 22.0567C18.5949 23.7386 16.4561 25.2259 14.134 26.4881C13.8948 26.6026 13.6329 26.6792 13.361 26.7143C13.0994 26.7051 12.8446 26.641 12.6196 26.528C9.07453 24.6315 5.96439 22.2106 3.43885 19.3819C1.32555 17.0207 0.124919 14.168 0 11.2112L0.00946122 10.7811C0.18201 6.92158 2.70351 3.39574 6.70116 1.47207ZM15.0038 7.91179C13.3185 7.31851 11.3754 7.64083 10.0819 8.72826C8.78832 9.81568 8.39943 11.4537 9.0968 12.8775C9.79416 14.3013 11.4402 15.23 13.2664 15.23C14.4627 15.2372 15.6128 14.8403 16.4602 14.1279C17.3077 13.4155 17.7821 12.4467 17.7779 11.4375C17.7843 9.89691 16.6891 8.50506 15.0038 7.91179Z" fill="white"/>
</svg>
