<svg width="22" height="22" viewBox="0 0 22 22" fill="none" xmlns="http://www.w3.org/2000/svg">
<path d="M13.661 3.84015C13.1373 3.74341 12.6563 4.07761 12.5566 4.58881C12.4569 5.10001 12.7922 5.59911 13.3016 5.69915C14.8355 5.99818 16.0198 7.18547 16.32 8.72456V8.72566C16.4054 9.1687 16.7955 9.49081 17.2447 9.49081C17.3049 9.49081 17.3652 9.48531 17.4265 9.47432C17.936 9.37208 18.2712 8.87407 18.1715 8.36178C17.7234 6.06304 15.9541 4.28759 13.661 3.84015Z" fill="white"/>
<path d="M13.5909 0.00872356C13.3455 -0.0264556 13.099 0.0461014 12.9029 0.202209C12.7013 0.360515 12.5753 0.58918 12.5479 0.845328C12.4899 1.36312 12.8635 1.83144 13.3806 1.88971C16.9468 2.28767 19.7186 5.06573 20.1196 8.64301C20.1733 9.12233 20.5754 9.48401 21.0552 9.48401C21.0914 9.48401 21.1265 9.48182 21.1626 9.47742C21.4135 9.44993 21.637 9.32571 21.7948 9.12782C21.9514 8.92994 22.0226 8.68369 21.9942 8.43194C21.4946 3.96858 18.0402 0.50453 13.5909 0.00872356Z" fill="white"/>
<path fill-rule="evenodd" clip-rule="evenodd" d="M9.93585 12.0688C14.3243 16.456 15.3198 11.3805 18.1139 14.1727C20.8077 16.8657 22.3559 17.4052 18.943 20.8172C18.5154 21.1608 15.7993 25.2941 6.25365 15.7512C-3.29314 6.20703 0.837822 3.48806 1.18148 3.06067C4.60269 -0.360763 5.13293 1.19647 7.82668 3.88947C10.6208 6.68282 5.54745 7.68162 9.93585 12.0688Z" fill="white"/>
</svg>
