<svg width="335" height="32" viewBox="0 0 335 32" fill="none" xmlns="http://www.w3.org/2000/svg">
<path fill-rule="evenodd" clip-rule="evenodd" d="M9.24768 29.8493C8.68733 26.1573 8.588 22.422 8.94265 18.7288C13.8909 22.4717 19.4918 25.1974 25.4204 26.7899C24.0107 28.1525 22.309 29.2595 20.3624 30.0049C16.6263 31.4355 12.6717 31.2722 9.24768 29.8493ZM9.06045 17.6405C14.1586 21.5936 19.9859 24.4311 26.1637 26.0178C29.795 21.9642 31.0844 16.0701 29.0044 10.638C28.5803 9.53054 28.0392 8.50229 27.4005 7.56201C27.0898 8.2312 26.4118 8.69525 25.6254 8.69525C24.5452 8.69525 23.6694 7.81952 23.6694 6.73926C23.6694 5.85833 24.2518 5.11342 25.0525 4.8685C22.1807 2.27933 18.3768 0.870408 14.4662 1.00995C14.1602 1.55874 13.8651 2.1149 13.5812 2.67818C12.5943 4.63596 11.7566 6.65101 11.0696 8.70667C11.1392 8.69916 11.2099 8.69531 11.2816 8.69531C12.3618 8.69531 13.2376 9.57104 13.2376 10.6513C13.2376 11.7316 12.3618 12.6073 11.2816 12.6073C10.82 12.6073 10.3957 12.4474 10.0612 12.18C9.61555 13.9806 9.28169 15.8043 9.06045 17.6405ZM11.2122 1.48943C7.01519 9.81746 5.36925 19.1242 6.36861 28.2652C4.01055 26.6089 2.10356 24.2564 0.995616 21.3629C-0.0578477 18.6117 -0.247033 15.7421 0.294593 13.053C0.912454 13.5297 1.73664 13.725 2.54992 13.512C3.94327 13.147 4.77696 11.7217 4.41201 10.3283C4.12186 9.22051 3.16138 8.46649 2.07962 8.38737C3.74203 5.56191 6.33808 3.25951 9.63755 1.9961C10.1589 1.79648 10.6844 1.6279 11.2122 1.48943ZM16.6034 16.9295C16.903 16.474 17.3256 16.2505 17.8484 16.3467C18.3711 16.4428 18.6865 16.802 18.8045 17.3343C18.887 17.7064 18.6542 18.2812 18.6169 18.3697L18.6122 18.3801L18.6106 18.3834L18.6057 18.3929L17.3599 20.7187C17.2101 20.9983 16.7897 20.921 16.7492 20.6063L16.4125 17.9895C16.4113 17.9808 16.4106 17.9726 16.4103 17.9639C16.4069 17.8678 16.3939 17.2478 16.6034 16.9295ZM17.1127 17.059C17.2441 16.8144 17.5287 16.7724 17.7629 16.8154C17.9971 16.8585 18.2516 17.0264 18.2837 17.2744C18.2915 17.3342 18.286 17.4076 18.2742 17.482C18.2336 17.7385 18.1045 17.9699 17.9629 18.1876L17.7545 18.5081C17.5971 18.75 17.226 18.6832 17.163 18.4014L17.0918 18.0827C17.0308 17.81 16.9899 17.5278 17.0483 17.2546C17.0642 17.1803 17.0851 17.1104 17.1127 17.059ZM14.4764 14.3553C14.9997 13.4372 16.2637 12.4165 16.5261 12.2102C16.5471 12.1938 16.5767 12.2082 16.5785 12.2348L16.7946 15.4374C16.8105 15.6728 16.537 15.8122 16.3063 15.7627C15.6104 15.6135 15.098 16.0045 14.7761 16.3762C14.4672 16.7328 14.0568 18.2577 13.9184 18.798C13.9091 18.8344 13.8577 18.8302 13.8551 18.7927C13.8078 18.0946 13.7104 15.6994 14.4764 14.3553ZM20.3933 12.9213C20.5652 13.2075 21.3833 14.6111 21.5456 15.6554C21.7832 17.1841 20.8399 19.3879 20.5472 20.0234C20.5315 20.0576 20.482 20.0432 20.4862 20.0058C20.5491 19.4516 20.7082 17.8805 20.5465 17.4374C20.3779 16.9755 20.0382 16.4277 19.3347 16.3195C19.1015 16.2836 18.8955 16.0561 18.9941 15.8417L20.3356 12.9256C20.3468 12.9014 20.3796 12.8985 20.3933 12.9213ZM20.5176 6.34239L20.4926 4.72774L20.4221 3.61194C20.4002 3.26478 19.9285 3.17802 19.7845 3.49466L19.3216 4.51235L18.707 6.05429C18.982 6.14496 19.2651 6.21517 19.5542 6.26361C19.8746 6.31731 20.1969 6.34332 20.5176 6.34239ZM18.5356 6.4844L18.4225 6.76799L18.4224 6.7682C18.4206 6.77273 17.2872 9.50861 17.0925 11.3661C16.9366 12.8523 17.2407 15.1201 17.2903 15.473C17.2946 15.5043 17.31 15.5313 17.3337 15.5522L17.6524 15.833C17.7542 15.9227 17.8972 15.949 18.0243 15.9014L18.4221 15.7524C18.4517 15.7413 18.4756 15.7215 18.4909 15.6938C18.6627 15.3817 19.7539 13.3705 20.1371 11.9261C20.616 10.1209 20.5304 7.16081 20.5302 7.15591L20.5302 7.15568L20.5248 6.80459C20.1763 6.80594 19.826 6.77784 19.4778 6.71948C19.156 6.66557 18.8411 6.58669 18.5356 6.4844ZM18.9419 28.9082C19.5721 28.9082 20.0829 28.3974 20.0829 27.7672C20.0829 27.1371 19.5721 26.6262 18.9419 26.6262C18.3117 26.6262 17.8009 27.1371 17.8009 27.7672C17.8009 28.3974 18.3117 28.9082 18.9419 28.9082ZM27.2551 17.0082C27.2551 17.6384 26.7443 18.1492 26.1141 18.1492C25.484 18.1492 24.9731 17.6384 24.9731 17.0082C24.9731 16.3781 25.484 15.8673 26.1141 15.8673C26.7443 15.8673 27.2551 16.3781 27.2551 17.0082ZM13.5635 24.6696C13.5635 25.7498 12.6878 26.6256 11.6075 26.6256C10.5272 26.6256 9.65149 25.7498 9.65149 24.6696C9.65149 23.5893 10.5272 22.7136 11.6075 22.7136C12.6878 22.7136 13.5635 23.5893 13.5635 24.6696ZM25.2995 23.6916C26.3798 23.6916 27.2555 22.8159 27.2555 21.7356C27.2555 20.6553 26.3798 19.7796 25.2995 19.7796C24.2192 19.7796 23.3435 20.6553 23.3435 21.7356C23.3435 22.8159 24.2192 23.6916 25.2995 23.6916ZM12.9111 28.2548C12.9111 28.6149 12.6191 28.9068 12.2591 28.9068C11.899 28.9068 11.6071 28.6149 11.6071 28.2548C11.6071 27.8947 11.899 27.6028 12.2591 27.6028C12.6191 27.6028 12.9111 27.8947 12.9111 28.2548ZM2.50545 16.5565C2.07003 16.6705 1.6246 16.41 1.51055 15.9746C1.39651 15.5392 1.65703 15.0937 2.09246 14.9797C2.52788 14.8656 2.97331 15.1262 3.08736 15.5616C3.2014 15.997 2.94088 16.4425 2.50545 16.5565ZM14.5412 27.1152C14.5412 27.3853 14.3223 27.6042 14.0522 27.6042C13.7822 27.6042 13.5632 27.3853 13.5632 27.1152C13.5632 26.8452 13.7822 26.6262 14.0522 26.6262C14.3223 26.6262 14.5412 26.8452 14.5412 27.1152ZM12.2591 16.5188C12.6191 16.5188 12.9111 16.2269 12.9111 15.8668C12.9111 15.5067 12.6191 15.2148 12.2591 15.2148C11.899 15.2148 11.6071 15.5067 11.6071 15.8668C11.6071 16.2269 11.899 16.5188 12.2591 16.5188Z" fill="white"/>
<path d="M75.442 25L70.32 16.342L74.454 13.898L81.24 25H75.442ZM63.846 25V6.8H68.968V25H63.846ZM67.486 18.032V13.872H74.09V18.032H67.486ZM74.948 16.446L70.19 15.926L75.78 6.8H81.188L74.948 16.446ZM89.3189 25.234C87.7762 25.234 86.4069 24.922 85.2109 24.298C84.0149 23.674 83.0702 22.816 82.3769 21.724C81.7009 20.6147 81.3629 19.3493 81.3629 17.928C81.3629 16.5067 81.7009 15.25 82.3769 14.158C83.0702 13.066 84.0149 12.2167 85.2109 11.61C86.4069 10.986 87.7762 10.674 89.3189 10.674C90.8616 10.674 92.2309 10.986 93.4269 11.61C94.6402 12.2167 95.5849 13.066 96.2609 14.158C96.9369 15.25 97.2749 16.5067 97.2749 17.928C97.2749 19.3493 96.9369 20.6147 96.2609 21.724C95.5849 22.816 94.6402 23.674 93.4269 24.298C92.2309 24.922 90.8616 25.234 89.3189 25.234ZM89.3189 21.308C89.8909 21.308 90.3936 21.178 90.8269 20.918C91.2776 20.658 91.6329 20.2767 91.8929 19.774C92.1529 19.254 92.2829 18.6387 92.2829 17.928C92.2829 17.2173 92.1529 16.6193 91.8929 16.134C91.6329 15.6313 91.2776 15.25 90.8269 14.99C90.3936 14.73 89.8909 14.6 89.3189 14.6C88.7642 14.6 88.2616 14.73 87.8109 14.99C87.3776 15.25 87.0222 15.6313 86.7449 16.134C86.4849 16.6193 86.3549 17.2173 86.3549 17.928C86.3549 18.6387 86.4849 19.254 86.7449 19.774C87.0222 20.2767 87.3776 20.658 87.8109 20.918C88.2616 21.178 88.7642 21.308 89.3189 21.308ZM106.664 25.234C105.104 25.234 103.708 24.922 102.478 24.298C101.264 23.674 100.311 22.816 99.6177 21.724C98.9244 20.6147 98.5777 19.3493 98.5777 17.928C98.5777 16.5067 98.9244 15.25 99.6177 14.158C100.311 13.066 101.264 12.2167 102.478 11.61C103.708 10.986 105.104 10.674 106.664 10.674C108.258 10.674 109.636 11.012 110.798 11.688C111.959 12.364 112.782 13.3173 113.268 14.548L109.446 16.498C109.116 15.8393 108.709 15.3627 108.224 15.068C107.738 14.756 107.21 14.6 106.638 14.6C106.066 14.6 105.546 14.73 105.078 14.99C104.61 15.25 104.237 15.6313 103.96 16.134C103.7 16.6193 103.57 17.2173 103.57 17.928C103.57 18.656 103.7 19.2713 103.96 19.774C104.237 20.2767 104.61 20.658 105.078 20.918C105.546 21.178 106.066 21.308 106.638 21.308C107.21 21.308 107.738 21.1607 108.224 20.866C108.709 20.554 109.116 20.0687 109.446 19.41L113.268 21.36C112.782 22.5907 111.959 23.544 110.798 24.22C109.636 24.896 108.258 25.234 106.664 25.234ZM115.334 25V10.908H120.534L125.448 20.112H123.394L128.776 10.908H133.43L133.456 25H129.01V15.796L129.764 16.316L125.396 23.752H123.29L118.922 15.952L119.78 15.718V25H115.334ZM143.731 25.234C142.188 25.234 140.819 24.922 139.623 24.298C138.427 23.674 137.482 22.816 136.789 21.724C136.113 20.6147 135.775 19.3493 135.775 17.928C135.775 16.5067 136.113 15.25 136.789 14.158C137.482 13.066 138.427 12.2167 139.623 11.61C140.819 10.986 142.188 10.674 143.731 10.674C145.274 10.674 146.643 10.986 147.839 11.61C149.052 12.2167 149.997 13.066 150.673 14.158C151.349 15.25 151.687 16.5067 151.687 17.928C151.687 19.3493 151.349 20.6147 150.673 21.724C149.997 22.816 149.052 23.674 147.839 24.298C146.643 24.922 145.274 25.234 143.731 25.234ZM143.731 21.308C144.303 21.308 144.806 21.178 145.239 20.918C145.69 20.658 146.045 20.2767 146.305 19.774C146.565 19.254 146.695 18.6387 146.695 17.928C146.695 17.2173 146.565 16.6193 146.305 16.134C146.045 15.6313 145.69 15.25 145.239 14.99C144.806 14.73 144.303 14.6 143.731 14.6C143.176 14.6 142.674 14.73 142.223 14.99C141.79 15.25 141.434 15.6313 141.157 16.134C140.897 16.6193 140.767 17.2173 140.767 17.928C140.767 18.6387 140.897 19.254 141.157 19.774C141.434 20.2767 141.79 20.658 142.223 20.918C142.674 21.178 143.176 21.308 143.731 21.308ZM161.076 25.234C159.516 25.234 158.121 24.922 156.89 24.298C155.677 23.674 154.723 22.816 154.03 21.724C153.337 20.6147 152.99 19.3493 152.99 17.928C152.99 16.5067 153.337 15.25 154.03 14.158C154.723 13.066 155.677 12.2167 156.89 11.61C158.121 10.986 159.516 10.674 161.076 10.674C162.671 10.674 164.049 11.012 165.21 11.688C166.371 12.364 167.195 13.3173 167.68 14.548L163.858 16.498C163.529 15.8393 163.121 15.3627 162.636 15.068C162.151 14.756 161.622 14.6 161.05 14.6C160.478 14.6 159.958 14.73 159.49 14.99C159.022 15.25 158.649 15.6313 158.372 16.134C158.112 16.6193 157.982 17.2173 157.982 17.928C157.982 18.656 158.112 19.2713 158.372 19.774C158.649 20.2767 159.022 20.658 159.49 20.918C159.958 21.178 160.478 21.308 161.05 21.308C161.622 21.308 162.151 21.1607 162.636 20.866C163.121 20.554 163.529 20.0687 163.858 19.41L167.68 21.36C167.195 22.5907 166.371 23.544 165.21 24.22C164.049 24.896 162.671 25.234 161.076 25.234ZM177.598 25V6.8H194.68V25H189.584V9.738L190.728 10.882H181.55L182.668 9.738V25H177.598ZM207.151 25.234C205.955 25.234 204.932 24.974 204.083 24.454C203.234 23.9167 202.584 23.1193 202.133 22.062C201.7 20.9873 201.483 19.618 201.483 17.954C201.483 16.2727 201.691 14.9033 202.107 13.846C202.523 12.7713 203.147 11.974 203.979 11.454C204.828 10.934 205.886 10.674 207.151 10.674C208.434 10.674 209.595 10.9773 210.635 11.584C211.692 12.1733 212.524 13.014 213.131 14.106C213.755 15.1807 214.067 16.4633 214.067 17.954C214.067 19.4447 213.755 20.736 213.131 21.828C212.524 22.92 211.692 23.7607 210.635 24.35C209.595 24.9393 208.434 25.234 207.151 25.234ZM198.285 30.044V10.908H202.991V13.3L202.965 17.954L203.225 22.634V30.044H198.285ZM206.111 21.308C206.666 21.308 207.16 21.178 207.593 20.918C208.044 20.658 208.399 20.2767 208.659 19.774C208.936 19.2713 209.075 18.6647 209.075 17.954C209.075 17.2433 208.936 16.6367 208.659 16.134C208.399 15.6313 208.044 15.25 207.593 14.99C207.16 14.73 206.666 14.6 206.111 14.6C205.556 14.6 205.054 14.73 204.603 14.99C204.17 15.25 203.814 15.6313 203.537 16.134C203.277 16.6367 203.147 17.2433 203.147 17.954C203.147 18.6647 203.277 19.2713 203.537 19.774C203.814 20.2767 204.17 20.658 204.603 20.918C205.054 21.178 205.556 21.308 206.111 21.308ZM223.381 25.234C221.839 25.234 220.469 24.922 219.273 24.298C218.077 23.674 217.133 22.816 216.439 21.724C215.763 20.6147 215.425 19.3493 215.425 17.928C215.425 16.5067 215.763 15.25 216.439 14.158C217.133 13.066 218.077 12.2167 219.273 11.61C220.469 10.986 221.839 10.674 223.381 10.674C224.924 10.674 226.293 10.986 227.489 11.61C228.703 12.2167 229.647 13.066 230.323 14.158C230.999 15.25 231.337 16.5067 231.337 17.928C231.337 19.3493 230.999 20.6147 230.323 21.724C229.647 22.816 228.703 23.674 227.489 24.298C226.293 24.922 224.924 25.234 223.381 25.234ZM223.381 21.308C223.953 21.308 224.456 21.178 224.889 20.918C225.34 20.658 225.695 20.2767 225.955 19.774C226.215 19.254 226.345 18.6387 226.345 17.928C226.345 17.2173 226.215 16.6193 225.955 16.134C225.695 15.6313 225.34 15.25 224.889 14.99C224.456 14.73 223.953 14.6 223.381 14.6C222.827 14.6 222.324 14.73 221.873 14.99C221.44 15.25 221.085 15.6313 220.807 16.134C220.547 16.6193 220.417 17.2173 220.417 17.928C220.417 18.6387 220.547 19.254 220.807 19.774C221.085 20.2767 221.44 20.658 221.873 20.918C222.324 21.178 222.827 21.308 223.381 21.308ZM241.507 25V6.8H245.745L253.259 19.176H251.023L258.381 6.8H262.619L262.671 25H257.913L257.887 14.002H258.693L253.207 23.206H250.919L245.277 14.002H246.239V25H241.507ZM273.51 25.234C271.846 25.234 270.39 24.922 269.142 24.298C267.911 23.6567 266.949 22.79 266.256 21.698C265.58 20.5887 265.242 19.332 265.242 17.928C265.242 16.524 265.571 15.276 266.23 14.184C266.906 13.0747 267.833 12.2167 269.012 11.61C270.19 10.986 271.516 10.674 272.99 10.674C274.376 10.674 275.642 10.96 276.786 11.532C277.93 12.0867 278.84 12.91 279.516 14.002C280.192 15.094 280.53 16.42 280.53 17.98C280.53 18.1533 280.521 18.3527 280.504 18.578C280.486 18.8033 280.469 19.0113 280.452 19.202H269.298V16.602H277.826L275.954 17.33C275.971 16.6887 275.85 16.134 275.59 15.666C275.347 15.198 275 14.834 274.55 14.574C274.116 14.314 273.605 14.184 273.016 14.184C272.426 14.184 271.906 14.314 271.456 14.574C271.022 14.834 270.684 15.2067 270.442 15.692C270.199 16.16 270.078 16.7147 270.078 17.356V18.11C270.078 18.8033 270.216 19.4013 270.494 19.904C270.788 20.4067 271.204 20.7967 271.742 21.074C272.279 21.334 272.92 21.464 273.666 21.464C274.359 21.464 274.948 21.3687 275.434 21.178C275.936 20.97 276.43 20.658 276.916 20.242L279.516 22.946C278.84 23.6913 278.008 24.2633 277.02 24.662C276.032 25.0433 274.862 25.234 273.51 25.234ZM292.866 22.842V14.834H289.096L289.044 16.186C289.009 16.862 288.966 17.5033 288.914 18.11C288.879 18.6993 288.792 19.2367 288.654 19.722C288.515 20.2073 288.316 20.6233 288.056 20.97C287.796 21.2993 287.449 21.542 287.016 21.698L282.18 21.048C282.648 21.048 283.029 20.918 283.324 20.658C283.636 20.3807 283.878 19.9993 284.052 19.514C284.225 19.0287 284.346 18.474 284.416 17.85C284.502 17.2087 284.563 16.5327 284.598 15.822L284.78 10.908H297.806V22.842H292.866ZM281.712 27.912V21.048H299.756V27.912H295.18V25H286.314V27.912H281.712ZM301.879 25V10.908H306.793V18.292L312.695 10.908H317.245V25H312.305V17.59L306.455 25H301.879ZM328.912 25V22.374L328.574 21.724V16.888C328.574 16.108 328.332 15.51 327.846 15.094C327.378 14.6607 326.624 14.444 325.584 14.444C324.908 14.444 324.224 14.5567 323.53 14.782C322.837 14.99 322.248 15.2847 321.762 15.666L320.098 12.312C320.896 11.792 321.849 11.3933 322.958 11.116C324.085 10.8213 325.203 10.674 326.312 10.674C328.6 10.674 330.368 11.2027 331.616 12.26C332.882 13.3 333.514 14.938 333.514 17.174V25H328.912ZM324.752 25.234C323.626 25.234 322.672 25.0433 321.892 24.662C321.112 24.2807 320.514 23.7607 320.098 23.102C319.7 22.4433 319.5 21.7067 319.5 20.892C319.5 20.0253 319.717 19.28 320.15 18.656C320.601 18.0147 321.286 17.5293 322.204 17.2C323.123 16.8533 324.31 16.68 325.766 16.68H329.094V19.254H326.442C325.645 19.254 325.082 19.384 324.752 19.644C324.44 19.904 324.284 20.2507 324.284 20.684C324.284 21.1173 324.449 21.464 324.778 21.724C325.108 21.984 325.558 22.114 326.13 22.114C326.668 22.114 327.153 21.984 327.586 21.724C328.037 21.4467 328.366 21.0307 328.574 20.476L329.25 22.296C328.99 23.2667 328.479 24.0033 327.716 24.506C326.971 24.9913 325.983 25.234 324.752 25.234Z" fill="white"/>
</svg>
