<svg width="32" height="32" viewBox="0 0 32 32" fill="none" xmlns="http://www.w3.org/2000/svg">
<path fill-rule="evenodd" clip-rule="evenodd" d="M9.5387 18.9103C9.16041 22.8496 9.26636 26.8339 9.86405 30.772C13.5164 32.2898 17.7347 32.464 21.7199 30.938C23.7962 30.143 25.6114 28.9622 27.115 27.5087C20.7911 25.8101 14.8169 22.9027 9.5387 18.9103ZM21.422 28.5514C21.422 29.2236 20.8771 29.7685 20.2049 29.7685C19.5328 29.7685 18.9879 29.2236 18.9879 28.5514C18.9879 27.8792 19.5328 27.3343 20.2049 27.3343C20.8771 27.3343 21.422 27.8792 21.422 28.5514ZM12.3816 27.3336C13.5338 27.3336 14.468 26.3995 14.468 25.2472C14.468 24.095 13.5338 23.1608 12.3816 23.1608C11.2293 23.1608 10.2952 24.095 10.2952 25.2472C10.2952 26.3995 11.2293 27.3336 12.3816 27.3336ZM13.0766 29.7669C13.4607 29.7669 13.772 29.4556 13.772 29.0715C13.772 28.6874 13.4607 28.376 13.0766 28.376C12.6925 28.376 12.3811 28.6874 12.3811 29.0715C12.3811 29.4556 12.6925 29.7669 13.0766 29.7669ZM14.9893 28.3775C15.2774 28.3775 15.5109 28.144 15.5109 27.8559C15.5109 27.5679 15.2774 27.3343 14.9893 27.3343C14.7012 27.3343 14.4677 27.5679 14.4677 27.8559C14.4677 28.144 14.7012 28.3775 14.9893 28.3775Z" fill="#3531F7"/>
<path d="M18.9472 16.8691C18.6974 16.8232 18.3938 16.8681 18.2537 17.129C18.2243 17.1838 18.2019 17.2584 18.185 17.3375C18.1227 17.629 18.1663 17.9301 18.2314 18.2209L18.3074 18.5609C18.3746 18.8614 18.7703 18.9327 18.9382 18.6746L19.1606 18.3328C19.3116 18.1006 19.4493 17.8538 19.4926 17.5802C19.5052 17.5008 19.5111 17.4225 19.5028 17.3587C19.4685 17.0942 19.197 16.9151 18.9472 16.8691Z" fill="#3531F7"/>
<path fill-rule="evenodd" clip-rule="evenodd" d="M27.9078 26.6852C23.5295 25.5607 19.3162 23.8472 15.3864 21.587C15.464 21.4959 15.5109 21.3779 15.5109 21.2488C15.5109 20.9608 15.2774 20.7272 14.9893 20.7272C14.7658 20.7272 14.5751 20.8679 14.5008 21.0655C12.8316 20.0593 11.2163 18.9528 9.66435 17.7495C9.90034 15.7907 10.2565 13.8454 10.7318 11.9247C11.0887 12.2102 11.5414 12.3808 12.0339 12.3808C13.1862 12.3808 14.1203 11.4467 14.1203 10.2944C14.1203 9.14215 13.1862 8.20804 12.0339 8.20804C11.9574 8.20804 11.8818 8.21216 11.8074 8.2202C12.5402 6.02742 13.4337 3.87796 14.4865 1.7896C14.7894 1.18875 15.1041 0.595494 15.4305 0.0101001C19.602 -0.138778 23.6596 1.36416 26.723 4.12611C25.8688 4.38735 25.2477 5.18192 25.2477 6.12158C25.2477 7.27387 26.1818 8.20798 27.334 8.20798C28.1728 8.20798 28.896 7.71303 29.2274 6.99926C29.9086 8.00215 30.4857 9.09884 30.938 10.2801C33.1567 16.0743 31.7814 22.3613 27.9078 26.6852ZM19.0384 16.3693C18.4808 16.2667 18.03 16.5051 17.7104 16.991C17.487 17.3305 17.5008 17.9918 17.5044 18.0943C17.5047 18.1036 17.5056 18.1124 17.5067 18.1216L17.8659 20.913C17.9091 21.2486 18.3575 21.331 18.5173 21.0328L19.8462 18.5519C19.8506 18.5437 19.8545 18.5358 19.8581 18.5272C19.8979 18.4328 20.1462 17.8197 20.0583 17.4228C19.9324 16.855 19.596 16.4718 19.0384 16.3693ZM17.6275 11.957C17.3476 12.177 15.9993 13.2657 15.4411 14.2451C14.6241 15.6788 14.7279 18.2337 14.7784 18.9782C14.7811 19.0183 14.836 19.0228 14.8459 18.9839C14.9936 18.4076 15.4313 16.781 15.7607 16.4007C16.1041 16.0042 16.6507 15.5871 17.393 15.7462C17.6391 15.799 17.9308 15.6504 17.9139 15.3993L17.6834 11.9832C17.6815 11.9548 17.6498 11.9394 17.6275 11.957ZM22.9816 15.6318C22.8085 14.5179 21.9358 13.0207 21.7525 12.7155C21.7379 12.6911 21.7028 12.6942 21.6909 12.7201L20.26 15.8306C20.1548 16.0592 20.3745 16.3019 20.6233 16.3402C21.3737 16.4556 21.736 17.0399 21.9159 17.5326C22.0884 18.0053 21.9187 19.6811 21.8516 20.2722C21.847 20.3121 21.8999 20.3275 21.9167 20.291C22.2288 19.6131 23.235 17.2624 22.9816 15.6318ZM21.8584 3.97563L21.8851 5.69793C21.543 5.69892 21.1992 5.67118 20.8574 5.6139C20.5491 5.56223 20.2471 5.48734 19.9537 5.39062L20.6093 3.74588L21.1031 2.66035C21.2567 2.3226 21.7598 2.41515 21.7832 2.78545L21.8584 3.97563ZM19.6503 6.1519L19.7709 5.84941C20.0968 5.95852 20.4327 6.04265 20.7759 6.10016C21.1474 6.16241 21.521 6.19238 21.8927 6.19095L21.8985 6.56544C21.8987 6.57066 21.99 9.72833 21.4792 11.6539C21.0704 13.1946 19.9065 15.3399 19.7232 15.6728C19.7069 15.7023 19.6814 15.7234 19.6499 15.7352L19.2256 15.8942C19.09 15.945 18.9374 15.917 18.8288 15.8212L18.4889 15.5217C18.4636 15.4994 18.4472 15.4706 18.4425 15.4372C18.3897 15.0608 18.0653 12.6418 18.2316 11.0565C18.4393 9.07523 19.6483 6.15673 19.6503 6.1519ZM27.8553 18.2922C28.5275 18.2922 29.0724 17.7473 29.0724 17.0752C29.0724 16.403 28.5275 15.8581 27.8553 15.8581C27.1832 15.8581 26.6383 16.403 26.6383 17.0752C26.6383 17.7473 27.1832 18.2922 27.8553 18.2922ZM29.0728 22.1177C29.0728 23.27 28.1387 24.2041 26.9864 24.2041C25.8341 24.2041 24.9 23.27 24.9 22.1177C24.9 20.9654 25.8341 20.0313 26.9864 20.0313C28.1387 20.0313 29.0728 20.9654 29.0728 22.1177ZM13.0766 16.5531C13.4607 16.5531 13.772 16.2417 13.772 15.8576C13.772 15.4735 13.4607 15.1621 13.0766 15.1621C12.6925 15.1621 12.3811 15.4735 12.3811 15.8576C12.3811 16.2417 12.6925 16.5531 13.0766 16.5531Z" fill="#3531F7"/>
<path fill-rule="evenodd" clip-rule="evenodd" d="M6.79303 29.0823C5.72709 19.3319 7.48276 9.40476 11.9596 0.521571C11.3967 0.669258 10.8361 0.849075 10.2801 1.06199C6.76054 2.40965 3.99138 4.86562 2.21815 7.87954C3.37217 7.96379 4.39687 8.76813 4.7064 9.94991C5.09567 11.4362 4.2064 12.9566 2.72016 13.3458C1.85255 13.5731 0.973306 13.3646 0.314227 12.8561C-0.263501 15.7244 -0.0617002 18.7854 1.06199 21.7199C2.24378 24.8063 4.27783 27.3156 6.79303 29.0823ZM1.6115 15.9726C1.73315 16.4371 2.20828 16.715 2.67273 16.5933C3.13718 16.4717 3.41508 15.9965 3.29343 15.5321C3.17178 15.0676 2.69665 14.7897 2.2322 14.9114C1.76775 15.033 1.48986 15.5082 1.6115 15.9726Z" fill="#3531F7"/>
</svg>
