<svg width="19" height="18" viewBox="0 0 19 18" fill="none" xmlns="http://www.w3.org/2000/svg">
<path d="M9.23161 1.14763C9.86992 -0.157745 11.8057 0.116314 12.0566 1.54758L12.6601 4.99031C12.7723 5.63039 13.2839 6.12543 13.9273 6.21652L17.388 6.70646C18.8267 6.91015 19.1643 8.8359 17.8806 9.51679L14.7928 11.1546C14.2188 11.4591 13.906 12.0986 14.0182 12.7387L14.6217 16.1814C14.8726 17.6127 13.1454 18.5288 12.1011 17.5184L9.58935 15.0878C9.12235 14.6359 8.41749 14.5362 7.8434 14.8407L4.75565 16.4784C3.47196 17.1593 2.06694 15.7998 2.70525 14.4944L4.24063 11.3545C4.52609 10.7707 4.40318 10.0695 3.93619 9.61758L1.42438 7.18705C0.380143 6.1766 1.23899 4.42022 2.67772 4.62391L6.13844 5.11385C6.78187 5.20494 7.41077 4.87136 7.69623 4.28757L9.23161 1.14763Z" fill="#3531F7"/>
</svg>
