<svg width="18" height="19" viewBox="0 0 18 19" fill="none" xmlns="http://www.w3.org/2000/svg">
<path d="M8.47086 1.47137C9.10917 0.165986 11.045 0.440044 11.2959 1.87131L11.8993 5.31404C12.0115 5.95412 12.5231 6.44916 13.1665 6.54025L16.6273 7.03019C18.066 7.23388 18.4035 9.15963 17.1199 9.84052L14.0321 11.4783C13.458 11.7828 13.1453 12.4223 13.2575 13.0624L13.861 16.5052C14.1118 17.9364 12.3846 18.8525 11.3404 17.8421L8.82861 15.4116C8.36161 14.9597 7.65674 14.8599 7.08266 15.1644L3.9949 16.8022C2.71122 17.4831 1.3062 16.1235 1.94451 14.8181L3.47989 11.6782C3.76535 11.0944 3.64244 10.3932 3.17544 9.94131L0.663642 7.51078C-0.380599 6.50033 0.478244 4.74395 1.91698 4.94764L5.3777 5.43758C6.02112 5.52867 6.65002 5.19509 6.93548 4.6113L8.47086 1.47137Z" fill="url(#paint0_linear_79_215)"/>
<defs>
<linearGradient id="paint0_linear_79_215" x1="1.38376" y1="8.32002" x2="13.3354" y2="9.50704" gradientUnits="userSpaceOnUse">
<stop stop-color="#3531F6"/>
<stop offset="1" stop-color="#BEBEBE"/>
<stop offset="1" stop-color="#FFFEF2"/>
</linearGradient>
</defs>
</svg>
